<?xml version="1.0" encoding="utf-8"?>
<!-- Generator: Adobe Illustrator 16.0.0, SVG Export Plug-In . SVG Version: 6.00 Build 0)  -->
<!DOCTYPE svg PUBLIC "-//W3C//DTD SVG 1.1//EN" "http://www.w3.org/Graphics/SVG/1.1/DTD/svg11.dtd">
<svg version="1.1" xmlns="http://www.w3.org/2000/svg" xmlns:xlink="http://www.w3.org/1999/xlink" x="0px" y="0px" width="1400px"
	 height="980px" viewBox="0 0 1400 980" enable-background="new 0 0 1400 980" xml:space="preserve">
<g id="BACKGROUND">
	<rect fill="#FAFCFC" width="1400" height="980"/>
</g>
<g id="OBJECT">
	<g>
		<g>
			<path fill="#F2F2F7" d="M238.635,237.743l9.668,201.328l497.801-26.913c0,0-56.592-63.257-76.294-87.731
				c-19.702-24.475-72.79-57.153-145.797-47.215C389.122,295.574,307.251,186.428,238.635,237.743z"/>
			<path fill="none" stroke="#FCFCFC" stroke-miterlimit="10" d="M222.058,239.405l-1.171,201.557l498.529-0.106
				c0,0-53.109-66.208-71.467-91.707c-18.357-25.499-69.611-60.984-143.047-54.986C369.218,305.245,293.334,191.854,222.058,239.405
				z"/>
			<path fill="none" stroke="#FCFCFC" stroke-miterlimit="10" d="M207.953,240.345l-15.141,200.991l497.336,34.454
				c0,0-48.391-69.73-64.937-96.441c-16.545-26.709-65.215-65.663-138.891-64.771C350.195,316.228,282.355,197.849,207.953,240.345z
				"/>
			<path fill="#E4E4F0" d="M248.303,439.071l14.44,209.213l940.12-17.605l5.846-438.393c0,0-222.032,17.191-324.319,38.418
				C782.103,251.931,387.971,431.216,248.303,439.071z"/>
			<path fill="#B0D6E2" d="M300.012,632.478V532c0,0,4-41.213,20-31.606c16,9.605,15.5,14.605,22.75,16.605s16.25,17,16.25,22
				s5.899,17.197,5.899,17.197s14.101,0.123,24.101,12.082s9.742,63.829,9.742,63.829L300.012,632.478z"/>
			<path fill="#B0D6E2" d="M906.707,593.471h112v-87.246c0,0-10,0-9-6s4-34.007-5-33.003s-21,18.003-21,18.003l-4,40.506l-13,24.113
				c0,0,0-17.617-11-16.618s-15,16.618-15,16.618s-11-4.225-18,7.578S906.707,593.471,906.707,593.471z"/>
			<path fill="#2B5066" d="M260.128,614.29c0,0,237.684,10.098,314.263-3.526c76.579-13.623,222.67-15.199,272.188-13.85
				c49.518,1.351,171.433-13.641,171.433-13.641l109.692,4.831l77.484,3.198l-42.391,95.174l-914.495,25.695L260.128,614.29z"/>
			<path fill="#5D8091" d="M632.98,686.477c0,0,285.441-22.571,350.031-55.798c64.59-33.226,135.436-59.674,223-53.32v123.468
				l-573.031,4.39V686.477z"/>
			<path fill="#173951" d="M650.109,712.172c0,0,157.598-61.755,556.274-21.62l-6.303,96.887
				C1200.081,787.438,712.707,763.588,650.109,712.172z"/>
			<path fill="#0A2840" d="M1196.082,847.999H217.603l48.526-214.694c0,0,111.473-3.267,252.227,19.409
				s528.656,150.087,687.656,116.939L1196.082,847.999z"/>
			<path fill="#0A2840" d="M1086.006,458.999c0,0-22.742-15.999-28.374-4.999s-7.772,36-7.772,36s-29.963,17.056-35.405,40.333
				s19.472,21.12,19.472,21.12l37.086-12.454L1086.006,458.999z"/>
			<path fill="#7196A5" d="M1206.012,298.999v293.246l-223-3.511c0,0,8-25.513,16-35.124s32-21.61,32-21.61s28-8.001,30-13.001
				s2-97,5-109s18-11,18-11s-5-19,4-24s22-5,22-5v-26h13c0,0-4-20,1-22s10-6,10-6l5-11l33-6l3-20
				C1175.012,278.999,1206.012,273.999,1206.012,298.999z"/>
			<path fill="#0A2840" d="M384.012,637.333l48.585,4.232c0,0-2.585-26.322-7.585-24.944s-13-4.409-14-9.516s-1-24.63-12-26.868
				s-15,26.868-15,26.868l-12.5,3.817l-6.601,26.076L384.012,637.333z"/>
			<path fill="none" stroke="#1C1F19" stroke-miterlimit="10" d="M870.444,676.994c0,0,118.148-16.836,164.138-35.123
				s91.233-54.988,170.606-53.137h17.452"/>
			<path fill="none" stroke="#1C1F19" stroke-miterlimit="10" d="M1172.012,298.999c0,0-25.8,12.895-23.371,53.246
				s-32.618,48.678-34.594,67.014s-2.719,84.832-2.719,84.832"/>
			<path fill="none" stroke="#1C1F19" stroke-miterlimit="10" d="M1081.06,592.244v-67.738c0,0,25.044-27.099,54.276-25.507
				s6.734-48.506,18.733-53.456c0,0,27.645-13.05,35.571,0"/>
			<path fill="none" stroke="#1C1F19" stroke-miterlimit="10" d="M1018.707,593.471c0,0,10.744-56.063,42.305-74.472"/>
			<line fill="none" stroke="#1C1F19" stroke-miterlimit="10" x1="1123.012" y1="343.999" x2="1117.286" y2="410.999"/>
			<path fill="none" stroke="#1C1F19" stroke-miterlimit="10" d="M1305.562,386.517"/>
			<path fill="none" stroke="#FCFCFC" stroke-miterlimit="10" d="M1009.707,500.225c0,0-16.707,17.441-16.707,30.108
				s0,33.099,0,33.099"/>
			<path fill="none" stroke="#FCFCFC" stroke-miterlimit="10" d="M966.707,549.844c0,0-26.797,6-26.252,16.578
				s-7.068,25.822-7.068,25.822"/>
			<polygon fill="#0A2840" points="1057,590.734 1081.06,524.506 1081.06,590.244 			"/>
			<path fill="none" stroke="#FCFCFC" stroke-miterlimit="10" d="M326.512,504.649c0,0,12.488,19.349,12.488,34.35
				s4.619,19.165,10.81,26.083s9.202,49.737,9.202,49.737"/>
			<path fill="none" stroke="#FCFCFC" stroke-miterlimit="10" d="M399.012,580.237c0,0-5.988,26.401,0,34.582
				s9.422,7.761,13.205,24.971"/>
			<path fill="none" stroke="#FCFCFC" stroke-miterlimit="10" d="M349.544,521.771c0,0-2.521-41.771,9.468-41.771
				s30.497,14.732,39.743,7.866s31.269-44.779,49.257-42.323S451.727,494,460.363,509s17.376,9.666,32.006,21.333
				S514,614.819,514,614.819"/>
			<path fill="none" stroke="#FCFCFC" stroke-miterlimit="10" d="M421,524.506c0,0,23.023-6.508,27.012,7.493
				s1.09,31.56,5.539,36.28s20.81,31.359,18.129,46.54"/>
			<path fill="none" stroke="#FCFCFC" stroke-miterlimit="10" d="M398.754,487.866c0,0,21.994,40.37,28.12,53.752
				S437,616.622,437,616.622"/>
			<circle fill="none" stroke="#FCFCFC" stroke-miterlimit="10" cx="953.523" cy="772.703" r="3.477"/>
			<circle fill="none" stroke="#FCFCFC" stroke-miterlimit="10" cx="969.117" cy="778.59" r="2.41"/>
			<circle fill="none" stroke="#FCFCFC" stroke-miterlimit="10" cx="955.262" cy="786.047" r="1.738"/>
			<circle fill="none" stroke="#FCFCFC" stroke-miterlimit="10" cx="934.744" cy="770.675" r="3.256"/>
			<circle fill="none" stroke="#FCFCFC" stroke-miterlimit="10" cx="933.116" cy="780.218" r="1.628"/>
			<circle fill="none" stroke="#FCFCFC" stroke-miterlimit="10" cx="995" cy="780.59" r="2"/>
			<circle fill="none" stroke="#FCFCFC" stroke-miterlimit="10" cx="1021.053" cy="693.859" r="4.612"/>
			<circle fill="none" stroke="#FCFCFC" stroke-miterlimit="10" cx="1034.263" cy="695.623" r="3.125"/>
			<ellipse fill="none" stroke="#FCFCFC" stroke-miterlimit="10" cx="997" cy="689.973" rx="0" ry="0.914"/>
			<circle fill="none" stroke="#FCFCFC" stroke-miterlimit="10" cx="1000.484" cy="706.311" r="5.484"/>
			<circle fill="none" stroke="#FCFCFC" stroke-miterlimit="10" cx="946.523" cy="689.816" r="3.523"/>
			<circle fill="none" stroke="#FCFCFC" stroke-miterlimit="10" cx="950.893" cy="601.432" r="4.369"/>
			<circle fill="none" stroke="#FCFCFC" stroke-miterlimit="10" cx="946.523" cy="614.446" r="3.523"/>
			<circle fill="none" stroke="#FCFCFC" stroke-miterlimit="10" cx="970.01" cy="607.674" r="1.517"/>
			<circle fill="none" stroke="#FCFCFC" stroke-miterlimit="10" cx="989.563" cy="603.608" r="3.437"/>
			<circle fill="none" stroke="#FCFCFC" stroke-miterlimit="10" cx="927.612" cy="604.048" r="3.876"/>
			<circle fill="none" stroke="#FCFCFC" stroke-miterlimit="10" cx="329.224" cy="647.607" r="3.867"/>
			<circle fill="none" stroke="#FCFCFC" stroke-miterlimit="10" cx="341.607" cy="662.837" r="2.607"/>
			<circle fill="none" stroke="#FCFCFC" stroke-miterlimit="10" cx="354.411" cy="654.268" r="4.601"/>
			<circle fill="none" stroke="#FCFCFC" stroke-miterlimit="10" cx="361.961" cy="665.786" r="2.949"/>
		</g>
		<path fill="none" stroke="#FCFCFC" stroke-miterlimit="10" d="M983.012,677.186C983.012,677.186,1108,720,1155,807h14
			c0,0-29-53-43-126s-28.076-103.986-88.612-136.986"/>
		<path fill="none" stroke="#FCFCFC" stroke-miterlimit="10" d="M1137.001,513c0,0,42.35,67.264,43.509,133.711
			s1.159,66.447,1.159,66.447S1166.166,765,1175.083,812"/>
		<path fill="#028399" d="M1219.288,655.165c6.59,8.133,9.732,30.174,10.807,54.468s51.954,68.806-32.076,142.854
			c0,0-32.491-31.504-20.13-86.26c12.359-54.757,24.951-54.775,30.69-79.523C1214.318,661.957,1215.237,650.169,1219.288,655.165z"
			/>
		<path fill="#009AC3" d="M1141.596,748.786c0,0-30.707-11.588-37.08-45.192c-6.374-33.604-2.897-37.661-14.485-52.725
			c-11.588-15.064-9.271-13.905-7.532-16.224c1.738-2.317,30.708,26.073,39.979,31.867
			C1131.746,672.307,1158.398,710.546,1141.596,748.786z"/>
		<path fill="#009AC3" d="M1181.669,713.158c0,0,19.106-19.903,11.785-47.707c-7.321-27.806-11.427-29.624-8.085-45.247
			s2.002-13.905-0.155-15.035c-2.156-1.129-13.866,30.894-18.805,38.645C1161.472,651.563,1155.084,690.223,1181.669,713.158z"/>
		<path fill="#009AC3" d="M1075.546,737.315c0.258,8.878,10.429,24.797,23.175,41.02c12.747,16.223,4.636,73.003,99.656,74.162
			c0,0,3.476-38.24-34.764-66.63c-38.24-28.391-46.352-21.438-63.733-34.185C1082.498,738.937,1075.387,731.86,1075.546,737.315z"/>
		<path fill="#F9B300" d="M1006.019,691.649c-1.95,4.032,53.304,38.017,61.995,26.429
			C1076.704,706.49,1011.233,680.864,1006.019,691.649z"/>
		<path fill="#F9B300" d="M1051.162,552.321c-3.354,2.969,34.507,55.643,46.997,48.305
			C1110.647,593.288,1060.135,544.385,1051.162,552.321z"/>
		<path fill="#F9B300" d="M1149.404,535.225c-4.229,1.475,10.827,64.572,25.167,62.52
			C1188.91,595.689,1160.717,531.283,1149.404,535.225z"/>
		<path fill="none" stroke="#FCFCFC" stroke-miterlimit="10" d="M1081.06,636.948c0,0,51.465,46.957,60.536,111.838"/>
		<path fill="none" stroke="#FCFCFC" stroke-miterlimit="10" d="M1185.214,605.169c0,0-15.876,54.147-3.545,107.989"/>
		<path fill="none" stroke="#FCFCFC" stroke-miterlimit="10" d="M1075.546,737.315c0,0,31.121,41.638,49.121,56.661
			s64.25,49.351,70.458,58.521"/>
		<path fill="none" stroke="#FCFCFC" stroke-miterlimit="10" d="M1219.288,655.165c0,0-1.289,79.835-3.955,102.502
			S1195.125,812,1195.125,812"/>
		<g>
			<path fill="#FFFFFF" d="M737.189,445.999c0,0,9.952,1.048,14.99,5.485s13.02,14.097,26.008,7.118c0,0,6.4,1.265,10.93,6.345
				c4.531,5.08,13.808,11.075,23.065,1.46c9.26-9.616,11.224-13.937,18.396-12.621c7.172,1.318,14.075-0.146,15.291-8.897
				c1.218-8.751-10.584-17.162-22.231-8.766c0,0-6.156-21.421-26.207-22.763c-20.053-1.342-31.713,9.029-23.602,24.358
				c0,0-6.28,0.198-9.686,3.866c-3.405,3.667-6.394,5.068-10.546,4.306C749.444,445.128,742.79,443.126,737.189,445.999z"/>
			<path fill="none" stroke="#D0D0E2" stroke-miterlimit="10" d="M778.188,458.602c0,0,3.813-3.269,2.146-8.602
				s-9.26-3.667-8.63,2.333s4.718,2.054,4.507,0.36"/>
			<path fill="none" stroke="#D0D0E2" stroke-miterlimit="10" d="M773.829,437.719c0,0,3.838,3.422,8.505,1.352
				s4.511-12.737-1.578-12.737s-4.323,6.07-1.039,6.702"/>
			<path fill="none" stroke="#D0D0E2" stroke-miterlimit="10" d="M823.638,436.124c0,0-6.363,6.449,0,10.663
				c0,0,8.026,3.36,8.029-5.331c0.002-6.037-9.38-4.021-5.429,0.319"/>
		</g>
		<g>
			<path fill="none" stroke="#FCFCFC" stroke-miterlimit="10" d="M779.617,364.412c0,0,11.748,3.784,15.881,11.524
				c4.131,7.739,11.802,25.657,35.494,12.197c23.688-13.459,16.635-10.628,31.16-10.726c14.521-0.097,13.146-10.885,13.146-10.885
				s-11.465,7.814-19.408,2.262c-7.945-5.554-11.412-19.074-32.412-17.925c-20.998,1.149-22.069,16.186-22.069,16.186
				S793.149,360.408,779.617,364.412z"/>
			<path fill="none" stroke="#FCFCFC" stroke-miterlimit="10" d="M801.408,364.943c0,0,0.662,16.042,13.271,14.642
				c12.607-1.401,10.806-15.41,6.803-18.212c-4.002-2.802-10.297,0.1-8.55,9.156"/>
		</g>
		<g>
			<path fill="#FFFFFF" d="M888.426,412.757c0,0-28.241-8.403-27.176,11.071c1.067,19.474,18.566,12.978,25.179,11.627
				c6.613-1.35,11.586,3.846,15.135,5.72c3.551,1.874,14.653,5.111,22.135-4.001c0,0,7.32-0.137,14.062,5.398
				c6.74,5.535,23.392,10.391,30.732-10.394c0,0,14.16,9.26,21.126-1.345c6.967-10.604,3.456-14.271,12.137-14.379
				c0,0-3.174-5.325-8.854-5.516c-5.684-0.191-10.363-5.082-14.763-9.07c-4.4-3.986-16.492-12.034-29.393-10.523
				c-12.901,1.511-10.536,16.357-18.656,18.207c0,0-4.23-11.678-20.977-12.273C892.372,396.685,888.426,412.757,888.426,412.757z"/>
			<path fill="none" stroke="#D0D0E2" stroke-miterlimit="10" d="M923.698,437.175c0,0,8.213-13.005-3.916-17.916
				s-13.67,11.931-6.273,13.449c7.396,1.518,4.213-7.836,4.213-7.836"/>
			<path fill="none" stroke="#D0D0E2" stroke-miterlimit="10" d="M888.426,412.757c0,0-2.077,7.437,0,10.555
				c2.077,3.119,9.872,3.005,9.093-5.513c-0.778-8.519-8.198-3.192-4.98,1.459"/>
			<path fill="none" stroke="#D0D0E2" stroke-miterlimit="10" d="M968.493,432.179c0,0,3.86-13.856,12.436-12.92
				c8.574,0.936,5.067,10.63,0,8.511c-5.068-2.119-1.948-4.847,0-4.458"/>
		</g>
		<circle fill="#F9B300" cx="503.423" cy="167.274" r="67.868"/>
		<path fill="none" stroke="#FCFCFC" stroke-miterlimit="10" d="M556.027,177.114c0,30.2-12.563,54.683-42.763,54.683
			c-30.201,0-54.683-24.482-54.683-54.683c0-30.201,24.482-54.683,54.683-54.683C543.464,122.432,556.027,146.914,556.027,177.114z"
			/>
		<path fill="none" stroke="#FCFCFC" stroke-miterlimit="10" d="M523.076,204.169c-16.77,9.776-34.431,10.726-44.207-6.044
			s-4.107-38.29,12.663-48.065c16.77-9.777,38.289-4.107,48.065,12.663C549.374,179.492,539.846,194.393,523.076,204.169z"/>
	</g>
	<g>
		<g>
			<path fill="#0A2840" d="M590.762,436.856c0,0-51.75-0.357-71.25,17.643s-34,49-66.5,40s-67.5-33.5-81.5-68c0,0,15,101.5,100,99.5
				s62-64,119.25-85.5V436.856z"/>
			<path fill="#C4205B" d="M582.512,429.499c0,0,2,10.5,7,14s9.5-7,9.5-7L582.512,429.499z"/>
			<path fill="#0A2840" d="M359.012,410.999c0,0-23.5-40-26-45s-6.5-11.5-6.5-11.5l20-6.5
				C346.512,347.999,358.512,392.999,359.012,410.999z"/>
			<path fill="#0A2840" d="M290.012,386.999l9.5,18.5c0,0,45.5-4,59.5,5.5C359.012,410.999,317.012,382.499,290.012,386.999z"/>
			<polygon fill="#C4205B" points="371.512,439.499 380.012,436.856 357.711,398.758 349.81,407.312 			"/>
		</g>
		<path fill="#B0D6E2" d="M713.44,465.996c0,0,104.556,102.438,127.938,195.013c0,0,13.271,33.418-2.584,39.208
			s-80.75-30.433-99.176-76.817c-18.426-46.384-31.109-90.78-42.789-105.492C696.829,517.907,707.206,467.872,713.44,465.996z"/>
		<path fill="#E82866" d="M411.012,879.999c0,0,43.712-164.89,177.565-252.434l110.429-3.567c0,0,168.59,97.831,203.006,256.001
			H411.012z"/>
		<path fill="#B0D6E2" d="M550.158,487.866c0,0-83.145,120.467-88.478,215.8c0,0-6.667,35.334,10,38s73.481-45.248,82.741-94.291
			s13.26-95.042,21.927-111.709C576.348,535.666,556.635,488.521,550.158,487.866z"/>
		<path fill="#0A2840" d="M614.012,445.543c0,0-10.5-7.544-25.5-11.044s-41.5-16.5-36.5-58s52.651-49.982,73.5-31.5
			c0,0,28.5,1,26.5,27c0,0,31.509,7.444,18.505,32.722C657.512,429.999,614.012,445.543,614.012,445.543z"/>
		<path fill="#FDC1A7" d="M603.512,417.499c0,0-27-33,7.5-51.5s41,6,41,6l10,21c0,0,9,9.5,9.5,15s1.5,23.5-5,25.5
			s-22.5-0.5-20.5,9.5s5,17.5,5,17.5l26.5,2.5l-26,69l-52-58.5c0,0,15-5.5,15.5-12.5s-7-22-7-22s-15-4-11-17.5l6-4"/>
		<path fill="#0A2840" d="M627.512,347.499c0,0,27.5-17.321,38.5,11.589s-38.5,25.911-49.5,21.911c0,0,17,17,7,37.5
			c0,0-12.778-6-25.639,0s-15.361-25.5-15.361-25.5s3-25,4.5-26.5S627.512,347.499,627.512,347.499z"/>
		<path fill="#C4205B" d="M603.012,417.499c0,0-0.5-49,9.516-61c7.344-8.799,18.322-10.752,18.322-10.752l-11.466-5.017
			C619.384,340.73,586.512,355.499,603.012,417.499z"/>
		<circle fill="#C4205B" cx="625.054" cy="340.073" r="7.927"/>
		<polygon fill="#FFFFFF" points="612.528,465.746 648.012,514.999 663.012,458.999 680.012,461.499 653.012,538.999 
			593.459,474.499 		"/>
		<path fill="#B0D6E2" d="M598.378,467.499l52.429,69.112l26.705-75.48c0,0,5-5.132,12.5-2.132s20,5.5,20,5.5s14,0.5,9,34.5
			s-20.5,128-20.5,128l-107.75,8l-39.369-142c0,0-3.881-8.5,2.119-9s18-2,24-5S593.065,465.196,598.378,467.499z"/>
		<path fill="#C4205B" d="M448.012,879.999c0,0,31-145.143,139.5-220.571h112c0,0,114.086,84.093,146.5,220.571H448.012z"/>
		<path fill="none" stroke="#1C1F19" stroke-miterlimit="10" d="M612.128,686.293c0,0-50.113,66.164-51.454,105.102"/>
		<path fill="none" stroke="#1C1F19" stroke-miterlimit="10" d="M687.18,686.293c0,0,41.495,48.659,49.157,98.016"/>
		<polygon fill="#0A2840" points="632.438,690.076 746.104,692.499 746.104,656.358 		"/>
		<path fill="#00AC57" d="M587.512,654.999c0,0,66.5,23.5,112,0l-0.506-31.001l-110.429,3.121L587.512,654.999z"/>
		<g>
			<path fill="#007767" d="M574.391,597.062c0,0,47.292-45.95,164.454-4.818l-107.147,54.467L574.391,597.062z"/>
			<g>
				<path fill="#F9B300" d="M716.557,566.66c15.931,3.992,27.268,23.939,18.819,41.464c-8.449,17.524-68.474,8.513-50.545-32.341
					C684.831,575.783,690.659,560.172,716.557,566.66z"/>
				<path fill="#1C1F19" d="M718.462,553.611l6.256,1.766l-2.779,9.85c0,0,6.631,6.674,11.879,8.893c0,0-9.663,5.929-14.625-0.422
					c0,0-1.531,7.771-6.904,10.521c0,0-2.543-8.538,0.971-12.169c0,0-8.182-1.241-10.55-6.71c0,0,11.724,0.029,14.282-1.479
					C719.55,562.352,718.462,553.611,718.462,553.611z"/>
			</g>
			<g>
				<path fill="#F9B300" d="M648.606,555.363c14.068-8.475,36.203-2.438,42.664,15.912c6.459,18.351-42.272,54.536-58.579,13.008
					C632.691,584.283,625.738,569.14,648.606,555.363z"/>
				<path fill="#1C1F19" d="M640.702,544.807l5.665-3.188l5.02,8.919c0,0,9.408,0.008,14.684-2.146c0,0-2.616,11.031-10.617,10.068
					c0,0,4.428,6.567,2.586,12.316c0,0-7.846-4.222-7.94-9.273c0,0-6.652,4.923-12.198,2.744c0,0,8.292-8.289,9.027-11.167
					C647.665,550.201,640.702,544.807,640.702,544.807z"/>
			</g>
			<g>
				<path fill="#F9B300" d="M619.76,606.07c0.38,6.949-7.3,14.14-17.06,17.93c-15.35,5.95-35.81,3.48-38.08-21.53
					c0,0-1.73-11.739,14-18.84c2.16-0.97,4.65-1.86,7.52-2.62c4.99-1.319,10.38-0.899,15.35,0.94c4.05,1.49,7.83,3.92,10.88,7.13
					C616.55,593.46,619.39,599.27,619.76,606.07z"/>
				<path fill="#1C1F19" d="M581.876,569.638l5.83-1.358l2.139,9.178c0,0,8.315,2.432,13.534,1.888c0,0-5.155,9.077-11.98,6.164
					c0,0,2.222,6.947-0.888,11.554c0,0-5.848-5.754-4.63-10.243c0,0-7.149,2.638-11.49-0.719c0,0,9.466-5.19,10.858-7.545
					S581.876,569.638,581.876,569.638z"/>
			</g>
			<path fill="#0A2840" d="M619.76,606.07c0.38,6.949-7.3,14.14-17.06,17.93h-3.69l13.36-34.92
				C616.55,593.46,619.39,599.27,619.76,606.07z"/>
			<g>
				<path fill="#F9B300" d="M640.242,582.114c16.416-0.485,32.745,15.634,29.375,34.793c-3.372,19.159-63.588,26.791-57.429-17.396
					C612.187,599.511,613.556,582.903,640.242,582.114z"/>
				<path fill="#1C1F19" d="M638.531,569.037h6.5v10.234c0,0,8.195,4.623,13.848,5.333c0,0-7.69,8.33-14.19,3.565
					c0,0,0.638,7.896-3.787,12.002c0,0-4.767-7.527-2.372-11.975c0,0-8.211,1.026-11.975-3.593c0,0,11.291-3.156,13.344-5.304
					C641.953,577.154,638.531,569.037,638.531,569.037z"/>
			</g>
			<polygon fill="#0A2840" points="642.718,625.589 658.88,593.471 668.012,626.709 			"/>
			<g>
				<path fill="#F9B300" d="M679.413,586.441c15.115-0.447,30.152,14.396,27.048,32.039c-3.104,17.643-58.553,24.67-52.882-16.02
					c0,0,0.386-4.688,4.901-8.996C662.12,589.992,668.444,586.766,679.413,586.441z"/>
				<path fill="#1C1F19" d="M677.837,574.4h5.986v9.424c0,0,7.546,4.256,12.752,4.91c0,0-7.081,7.67-13.066,3.283
					c0,0,0.587,7.271-3.487,11.052c0,0-4.39-6.931-2.185-11.026c0,0-7.561,0.945-11.026-3.309c0,0,10.397-2.906,12.287-4.883
					C680.987,581.874,677.837,574.4,677.837,574.4z"/>
			</g>
			<path fill="#009AC3" d="M565.745,607.617c0,0,95.094,39.595,173.1-15.373c0,0-7.658,70.807-30.15,86.178
				c-22.492,15.373-86.536,16.623-107.197,3.209C580.836,668.218,566.842,612.741,565.745,607.617z"/>
			<path fill="none" stroke="#1C1F19" stroke-miterlimit="10" d="M696.575,588.734c0,0,10.917,5.174,9.921,20.72"/>
			<line fill="none" stroke="#1C1F19" stroke-miterlimit="10" x1="684.342" y1="580.24" x2="690.019" y2="568.279"/>
			<path fill="none" stroke="#1C1F19" stroke-miterlimit="10" d="M568.979,616.622c0,0,78.9,41.337,168.211-12.393"/>
			<line fill="none" stroke="#1C1F19" stroke-miterlimit="10" x1="587.512" y1="614.463" x2="593.459" y2="626.392"/>
			<line fill="none" stroke="#1C1F19" stroke-miterlimit="10" x1="621.847" y1="620.428" x2="626.556" y2="631.249"/>
			<line fill="none" stroke="#1C1F19" stroke-miterlimit="10" x1="666.07" y1="619.923" x2="672.799" y2="628.908"/>
			<line fill="none" stroke="#1C1F19" stroke-miterlimit="10" x1="699.512" y1="610.923" x2="709.879" y2="618.002"/>
			<line fill="none" stroke="#1C1F19" stroke-miterlimit="10" x1="726.372" y1="600.172" x2="732.25" y2="604.229"/>
			<circle fill="none" stroke="#F8F9F7" stroke-miterlimit="10" cx="622.183" cy="594.653" r="2.409"/>
			<circle fill="none" stroke="#F8F9F7" stroke-miterlimit="10" cx="632.437" cy="596.158" r="2.687"/>
			<circle fill="none" stroke="#F8F9F7" stroke-miterlimit="10" cx="624.202" cy="604.555" r="2.354"/>
			<circle fill="none" stroke="#F8F9F7" stroke-miterlimit="10" cx="573.493" cy="597.508" r="2.855"/>
			<circle fill="none" stroke="#F8F9F7" stroke-miterlimit="10" cx="580.12" cy="594.702" r="2.458"/>
			<circle fill="none" stroke="#F8F9F7" stroke-miterlimit="10" cx="582.185" cy="604.091" r="2.065"/>
			<circle fill="none" stroke="#F8F9F7" stroke-miterlimit="10" cx="669.311" cy="560" r="2.5"/>
			<circle fill="none" stroke="#F8F9F7" stroke-miterlimit="10" cx="676.131" cy="561.381" r="1.381"/>
			<circle fill="none" stroke="#F8F9F7" stroke-miterlimit="10" cx="673.096" cy="570.034" r="3.035"/>
			<circle fill="none" stroke="#F8F9F7" stroke-miterlimit="10" cx="661.815" cy="604.355" r="2.935"/>
			<circle fill="none" stroke="#F8F9F7" stroke-miterlimit="10" cx="668.436" cy="597.783" r="1.625"/>
			<circle fill="none" stroke="#F8F9F7" stroke-miterlimit="10" cx="671.579" cy="607.674" r="1.517"/>
			<circle fill="none" stroke="#F8F9F7" stroke-miterlimit="10" cx="725.995" cy="582.751" r="2.511"/>
			<circle fill="none" stroke="#F8F9F7" stroke-miterlimit="10" cx="722.758" cy="589.793" r="1.059"/>
			<circle fill="none" stroke="#F8F9F7" stroke-miterlimit="10" cx="732.284" cy="590.268" r="1.534"/>
		</g>
		<path fill="#FDC1A7" d="M587.512,674.114c0,0,17.833-7.227,22.5-8.671s10.989,0.634,15.661-1.738s11.339-6.372,13.672-10.372
			s2.333-8.612,2.333-8.612l-2.333,2.278l0.333-5l-2.943-2v-2.666c0,0-14.308,7.775-20.516,7.388c0,0,5.458-3.054,7.792-4.388
			s2.333-1.334,2.333-1.334s-6.251-0.334-10.125,1s-10.875,4.722-10.875,4.722l-20.488,4.945
			C584.857,649.666,578.262,667.447,587.512,674.114z"/>
		<path fill="#FFFFFF" d="M571.597,651.084l15.915-4.085c0,0,0,20,3.25,31l-24.25,14.5
			C566.512,692.499,559.682,657.169,571.597,651.084z"/>
		<polygon fill="#0A2840" points="573.014,649.666 577.663,685.831 566.512,692.499 563.25,655.948 		"/>
		<path fill="#B0D6E2" d="M471.68,741.666c0,0,1.063-0.056,2.947-0.157c12.688-0.688,62.595-3.479,75.531-5.51
			c14.856-2.333,26.189-30.333,26.189-30.333s-9.333-24.001-8.667-50.667l5.333-5.333c0,0-36.668,7.333-49,8"/>
		<path fill="#FDC1A7" d="M712.222,655.948c0,0-18.883-3.699-23.738-4.229c-4.857-0.53-10.668,2.714-15.706,1.274
			s-12.345-4.097-15.397-7.58c-3.052-3.482-3.929-8.011-3.929-8.011l2.724,1.793l-1.278-4.846l2.508-2.523l-0.507-2.617
			c0,0,15.526,4.91,21.547,3.348c0,0-5.94-1.959-8.485-2.824c-2.545-0.866-2.545-0.866-2.545-0.866s6.073-1.518,10.132-0.945
			c4.057,0.571,11.574,2.565,11.574,2.565l21.055,0.955C710.175,631.442,720.034,647.644,712.222,655.948z"/>
		<path fill="#FFFFFF" d="M723.462,630.311l-16.401-0.981c0,0,3.808,19.635,2.71,31.052L736.337,670
			C736.337,670,736.317,634.016,723.462,630.311z"/>
		<polygon fill="#0A2840" points="721.801,630.188 723.816,665.443 733.817,669.088 730.75,631.808 		"/>
		<path fill="#B0D6E2" d="M838.794,700.217c-0.001,0-1.055,0.147-2.923,0.407c-12.587,1.74-62.113,8.5-75.198,8.968
			c-15.028,0.538-31.484-24.793-31.484-24.793s4.594-25.339-1.137-51.391l-6.251-3.221c0,0,37.394-0.78,49.628-2.473"/>
		<polygon fill="#E82866" points="626.556,534.333 628.012,546.528 673.663,544.666 671.679,530.333 		"/>
		<path fill="#E82866" d="M668.012,532c0,0,14-38.001,27-30.667c13,7.333-22.629,34.087-22.629,34.087s24.337-4.421,25.483,8.579
			c1.146,13-29.854-5.568-29.854-5.568v-1.765c0,0,21.12,10.276,22.333,4.952c1.215-5.324-20.534-5.952-20.534-5.952
			s25.72-21.479,19.201-28c-2.667-2.667-19.201,24.333-19.201,24.333L668.012,532z"/>
		<line fill="none" stroke="#1C1F19" stroke-miterlimit="10" x1="582.578" y1="475.596" x2="626.556" y2="534.333"/>
		<line fill="none" stroke="#1C1F19" stroke-miterlimit="10" x1="695" y1="460.729" x2="673.663" y2="519.312"/>
		<line fill="none" stroke="#1C1F19" stroke-miterlimit="10" x1="648.012" y1="514.999" x2="648.012" y2="530.333"/>
		<polyline fill="none" stroke="#1C1F19" stroke-miterlimit="10" points="658.88,399 664,402.5 658.88,402.5 		"/>
		<path fill="none" stroke="#1C1F19" stroke-miterlimit="10" d="M604.567,425.185c0,0,7.161-0.615,10.047,7.85"/>
		<path fill="none" stroke="#1C1F19" stroke-miterlimit="10" d="M656.618,416.996c0,0,7.503,0.993,10.193-3.751"/>
		<path fill="none" stroke="#1C1F19" stroke-miterlimit="10" d="M556,490.021c0,0,18.509,41.07,13.901,66.177"/>
		<path fill="none" stroke="#1C1F19" stroke-miterlimit="10" d="M715.232,482c0,0-8.174,44.396-3.425,64.528"/>
		<g>
			<g>
				<line fill="none" stroke="#1C1F19" stroke-miterlimit="10" x1="557.167" y1="499.499" x2="565.539" y2="501.303"/>
				<line fill="none" stroke="#1C1F19" stroke-miterlimit="10" x1="563.188" y1="496.813" x2="558.16" y2="504.39"/>
			</g>
			<g>
				<line fill="none" stroke="#1C1F19" stroke-miterlimit="10" x1="560.378" y1="511.42" x2="568.75" y2="513.224"/>
				<line fill="none" stroke="#1C1F19" stroke-miterlimit="10" x1="566.398" y1="508.734" x2="561.37" y2="516.311"/>
			</g>
		</g>
		<g>
			<g>
				<line fill="none" stroke="#FCFCFC" stroke-miterlimit="10" x1="818.618" y1="816.067" x2="827.156" y2="815.309"/>
				<line fill="none" stroke="#FCFCFC" stroke-miterlimit="10" x1="823.619" y1="811.16" x2="820.967" y2="821.1"/>
			</g>
			<g>
				<line fill="none" stroke="#FCFCFC" stroke-miterlimit="10" x1="825.102" y1="828.074" x2="833.64" y2="827.316"/>
				<line fill="none" stroke="#FCFCFC" stroke-miterlimit="10" x1="830.103" y1="823.168" x2="827.45" y2="833.106"/>
			</g>
		</g>
		<g>
			<g>
				<line fill="none" stroke="#FCFCFC" stroke-miterlimit="10" x1="475.385" y1="816.067" x2="466.847" y2="815.309"/>
				<line fill="none" stroke="#FCFCFC" stroke-miterlimit="10" x1="470.384" y1="811.16" x2="473.036" y2="821.1"/>
			</g>
			<g>
				<line fill="none" stroke="#FCFCFC" stroke-miterlimit="10" x1="468.901" y1="828.074" x2="460.363" y2="827.316"/>
				<line fill="none" stroke="#FCFCFC" stroke-miterlimit="10" x1="463.9" y1="823.168" x2="466.553" y2="833.106"/>
			</g>
		</g>
		<g>
			<line fill="none" stroke="#1C1F19" stroke-miterlimit="10" x1="710.307" y1="488.262" x2="717.504" y2="492.902"/>
			<line fill="none" stroke="#1C1F19" stroke-miterlimit="10" x1="716.887" y1="487.873" x2="709.51" y2="493.187"/>
		</g>
		<g>
			<line fill="none" stroke="#1C1F19" stroke-miterlimit="10" x1="709.104" y1="500.549" x2="716.302" y2="505.19"/>
			<line fill="none" stroke="#1C1F19" stroke-miterlimit="10" x1="715.686" y1="500.16" x2="708.307" y2="505.475"/>
		</g>
		<polyline fill="none" stroke="#1C1F19" stroke-miterlimit="10" points="633.5,536.5 633.5,540.5 666.811,538.431 666.07,531.999 
					"/>
		<path fill="none" stroke="#1C1F19" stroke-miterlimit="10" d="M624.592,647.723c0,0,10.379-5.475,12.144-7.724"/>
		<path fill="none" stroke="#1C1F19" stroke-miterlimit="10" d="M626.556,652c0,0,12.05-7.252,13.122-10.001"/>
		<path fill="none" stroke="#1C1F19" stroke-miterlimit="10" d="M628.5,655.948c0,0,8.512-6.671,10.845-8.949"/>
		<path fill="none" stroke="#1C1F19" stroke-miterlimit="10" d="M657.404,631.827c0,0,12.096,5.089,17.346,5.506"/>
		<path fill="none" stroke="#1C1F19" stroke-miterlimit="10" d="M655.365,636.126c0,0,12.328,5.372,17.731,5.873"/>
		<path fill="none" stroke="#1C1F19" stroke-miterlimit="10" d="M656.175,639.196c0,0,14.075,8.872,18.575,9.088"/>
		<line fill="none" stroke="#1C1F19" stroke-miterlimit="10" x1="553.032" y1="653.435" x2="518.355" y2="658.25"/>
		<line fill="none" stroke="#1C1F19" stroke-miterlimit="10" x1="742.37" y1="629.572" x2="773.75" y2="626.709"/>
		<circle fill="none" stroke="#1C1F19" stroke-miterlimit="10" cx="715.492" cy="634.634" r="1.492"/>
		<circle fill="none" stroke="#1C1F19" stroke-miterlimit="10" cx="579.842" cy="654.18" r="2.179"/>
		<path fill="none" stroke="#FCFCFC" stroke-miterlimit="10" d="M524.014,738.447c0,0,0.515-62.218,10.917-82.499"/>
		<path fill="none" stroke="#FCFCFC" stroke-miterlimit="10" d="M762.727,627.715c0,0,22.429,51.362,22.878,79.445"/>
		<path fill="none" stroke="#FCFCFC" stroke-miterlimit="10" d="M563.188,649.666c0,0-6.201,46.908,10.306,62.121"/>
		<path fill="none" stroke="#FCFCFC" stroke-miterlimit="10" d="M732.283,629.572c0,0,11.352,41.867,1.534,61.314"/>
		<g>
			<circle fill="none" stroke="#FCFCFC" stroke-miterlimit="10" cx="545.898" cy="666.613" r="6.384"/>
			<circle fill="none" stroke="#FCFCFC" stroke-miterlimit="10" cx="545.898" cy="686.293" r="6.384"/>
			<circle fill="none" stroke="#FCFCFC" stroke-miterlimit="10" cx="545.429" cy="704.51" r="6.384"/>
			<circle fill="none" stroke="#FCFCFC" stroke-miterlimit="10" cx="544.96" cy="721.727" r="6.384"/>
		</g>
		<g>
			<circle fill="none" stroke="#FCFCFC" stroke-miterlimit="10" cx="752.958" cy="641.681" r="6.384"/>
			<circle fill="none" stroke="#FCFCFC" stroke-miterlimit="10" cx="757.317" cy="660.872" r="6.384"/>
			<circle fill="none" stroke="#FCFCFC" stroke-miterlimit="10" cx="760.895" cy="678.74" r="6.384"/>
			<circle fill="none" stroke="#FCFCFC" stroke-miterlimit="10" cx="764.251" cy="695.633" r="6.384"/>
		</g>
		<g>
			<path fill="none" stroke="#FCFCFC" stroke-miterlimit="10" d="M609.286,702.216c0,0,2.952,18.087,12.621,26.43
				c0,0,6.628-7.384,14.915-24.895c0,0,5.277,19.573,17.064,24.707c0,0,9.101-9.705,12.221-23.749c0,0,7.15,16.192,17.312,22.734
				c0,0,9.188-6.235,11.514-24.452"/>
			<polygon fill="none" stroke="#FCFCFC" stroke-miterlimit="10" points="667.75,729.646 664.777,735.998 669.07,740.57 
				672.435,735.301 			"/>
			<polygon fill="none" stroke="#FCFCFC" stroke-miterlimit="10" points="634.269,729.646 631.295,735.998 635.589,740.57 
				638.953,735.301 			"/>
			<polygon fill="none" stroke="#FCFCFC" stroke-miterlimit="10" points="601.154,724.646 598.181,730.998 602.475,735.57 
				605.839,730.301 			"/>
			<polygon fill="none" stroke="#FCFCFC" stroke-miterlimit="10" points="701.854,724.646 698.881,730.998 703.174,735.57 
				706.538,730.301 			"/>
			<polygon fill="none" stroke="#FCFCFC" stroke-miterlimit="10" points="674.75,705.216 681.693,718.5 687.18,704.51 			"/>
			<polygon fill="none" stroke="#FCFCFC" stroke-miterlimit="10" points="616.792,702.393 621.481,716.63 629.171,703.719 			"/>
			<polygon fill="none" stroke="#FCFCFC" stroke-miterlimit="10" points="646.173,704.167 652.801,717.612 658.617,703.755 			"/>
		</g>
		<path fill="none" stroke="#F8F9F7" stroke-miterlimit="10" d="M584.25,353.46c0,0,12.33-2.875,19.546,4.832"/>
		<path fill="none" stroke="#F8F9F7" stroke-miterlimit="10" d="M599.012,340.072c0,0,7.627,0.756,12.733,6.5"/>
		<path fill="none" stroke="#F8F9F7" stroke-miterlimit="10" d="M585.873,439.071c0,0-37.54,8.045-50.873,18.987
			s-49.378,68.061-99.401,30.204"/>
		<path fill="none" stroke="#F8F9F7" stroke-miterlimit="10" d="M400.462,465.996c0,0,45.41,62.329,91.907,45.424
			s37.797-53.868,91.88-68.144"/>
	</g>
	<g>
		<path fill="#028399" d="M256.73,864h-101v-5c11-34-7-51-10-67s18-36,13-56s-37-40-14-45.11c23-5.12,39,30.11,47,36.11
			s23,5,26,24.5c1.14,7.42,1.99,13.61,3.82,19.81c2.98,10.091,8.55,20.2,22.18,35.69C265.73,832,256.73,864,256.73,864z"/>
		<path fill="#0A2840" d="M256.73,864h-63.5c2.37-22.2,9.17-62.96,28.32-92.69c2.98,10.091,8.55,20.2,22.18,35.69
			C265.73,832,256.73,864,256.73,864z"/>
		<path fill="none" stroke="#FCFCFC" stroke-miterlimit="10" d="M162.718,712.172c0,0,26,35.828,24,56.828s22,94.999,22,94.999"/>
		<path fill="none" stroke="#FCFCFC" stroke-miterlimit="10" d="M166.718,788.086c0,0,16.108,2.889,25.054,15.901"/>
		<path fill="none" stroke="#FCFCFC" stroke-miterlimit="10" d="M197.528,740.57c0,0-11.263,14.49-11.036,21.46"/>
		<path fill="#009AC3" d="M233.012,879.999h197c0,0,18-92.453-41-138.227s-59-66.439-62.5-92.106s-26.5-52.323-47.5-66.995
			s-31-50.672-34-67.672s-13-49.007-30-49.003s-18,58.242-9,82.623s11,36.727,7,51.554s-24.232,42.827-12.616,78.827
			s28.616,49,25.616,72.5S199.012,838.999,233.012,879.999z"/>
		<g>
			<path fill="none" stroke="#FCFCFC" stroke-miterlimit="10" d="M227,526.028c0,0,9,72.968,28,97.97s43.023,79.143,45.012,116.572
				S301,851,339,889"/>
			<path fill="none" stroke="#FCFCFC" stroke-miterlimit="10" d="M215.81,649.666c0,0,42.618,10.094,72.904,40.714"/>
			<path fill="none" stroke="#FCFCFC" stroke-miterlimit="10" d="M238.635,793c0,0,53.826,19.475,73.596,48.237"/>
			<path fill="none" stroke="#FCFCFC" stroke-miterlimit="10" d="M295,610.923c0,0-19.567,18.406-14.91,57.734"/>
			<path fill="none" stroke="#FCFCFC" stroke-miterlimit="10" d="M349.81,751.499c0,0-34.879,16.739-43.344,65.62"/>
		</g>
	</g>
	<g>
		<g>
			<path fill="#1C1F19" d="M1222.641,121.733v87.333c0,0-33.334-0.666-46.667-4s-35.999-3.333-53.333,8s-94.667,70-114.667,80
				s-38.667,9.188-56.667,6.927s-31.334-12.261-44-10.927s-21.334,6.667-38,4.667s-27.333-4-35.333,1.333s-29.333,12-29.333,12
				s21.334-12.667,24-17.333s8.666-12.667,23.333-12s33.334,4.667,42.667,1.333s16-9.947,27.333-8.64s14,0,14,0s-10-2.693-22-10.693
				s-25.334-22.666-36.667-25.333s-44.666-2.667-53.333,3.333c0,0,10.667-11.333,28.667-11.333s26.667-2,34,1.333
				s27.333,22,35.333,23.333s14.001,2,20.667,6.667s17.332,16.72,30.666,12.693s39.334-23.36,55.334-27.36s24.666-16,32.666-28.667
				s52.668-57.333,87.334-60c0,0-13.333-0.667-18-3.333s-30.668-1.333-41.334,0.667s-34.666,8-46.666,0.667s-28.666-22-40-20.667
				s-36.001,10-47.334,10.667s-56.666,18-56.666,18l-18,14l10.666-14.667l-32-23.333l33.334,16c0,0,34-8,42-11.333
				s31.334-12,32-12.667s41.334-12,52-6.667s27.333,18,45.333,18.667s45.333-14,63.333-13.333s32.666,5.333,46,4.667
				S1222.641,121.733,1222.641,121.733z"/>
			<path fill="#1C1F19" d="M922.641,358.399c0,0,6-21.333,20-25.333s30.666-8.667,35.333-14.667s28.622-24.661,28.622-24.661
				l13.378-12.673l3.952,2.254c0,0-37.285,34.413-45.952,41.08S939.975,333.066,922.641,358.399z"/>
			<path fill="#E82866" d="M793.307,323.732l11.334-16.667l6.6-2.192C811.24,304.874,797.973,319.732,793.307,323.732z"/>
			<path fill="#E82866" d="M1013.641,95.732c0,0,14.094,28.791,25.88,38.562l8.111,2.554L1013.641,95.732z"/>
			<polygon fill="#E82866" points="916.641,329.732 939.568,334.284 946.336,332.008 			"/>
		</g>
		<g>
			<path fill="#E82866" d="M836.051,113.396c0,0,21.162,4.979,24.896,24.273C860.947,137.669,840.407,137.669,836.051,113.396z"/>
			<path fill="#E82866" d="M858.613,102.951c0,0,12.221,17.98,1.923,34.718C860.536,137.669,845.406,123.778,858.613,102.951z"/>
		</g>
		<g>
			<path fill="#E82866" d="M992.55,71.574c0,0,21.162,4.979,24.896,24.273C1017.446,95.847,996.906,95.847,992.55,71.574z"/>
			<path fill="#E82866" d="M1015.707,71.865c0,0,8.441,12.42,1.328,23.982C1017.035,95.847,1006.583,86.251,1015.707,71.865z"/>
		</g>
		<g>
			<path fill="#E82866" d="M827.476,155.993c0,0,14.896-15.835,33.472-9.42C860.947,146.572,850.675,164.359,827.476,155.993z"/>
			<path fill="#E82866" d="M839.309,136.085c0,0,14.977-1.099,21.433,10.843C860.741,146.928,847.204,151.18,839.309,136.085z"/>
		</g>
		<g>
			<path fill="#E82866" d="M920.995,113.396c0,0,21.161,4.979,24.896,24.273C945.891,137.669,925.352,137.669,920.995,113.396z"/>
			<path fill="#E82866" d="M944.151,113.687c0,0,8.442,12.42,1.329,23.983C945.48,137.669,935.028,128.073,944.151,113.687z"/>
			<path fill="#E82866" d="M916.947,139.808c0,0,14.223-4.821,23.467,5.12C940.414,144.927,928.376,152.439,916.947,139.808z"/>
		</g>
		<g>
			<path fill="#E82866" d="M756.667,305.913c0,0,20.214-8.002,34.301,5.701C790.968,311.614,774.109,323.348,756.667,305.913z"/>
			<path fill="#E82866" d="M769.22,284.451c0,0,20.302,7.777,21.411,27.398C790.631,311.849,770.276,309.09,769.22,284.451z"/>
		</g>
		<g>
			<path fill="#E82866" d="M773.962,345.774c0,0,3.181-21.506,22.092-26.853C796.054,318.921,797.783,339.388,773.962,345.774z"/>
			<path fill="#E82866" d="M772.303,322.675c0,0,11.664-9.458,23.785-3.344C796.088,319.331,787.406,330.554,772.303,322.675z"/>
		</g>
		<g>
			<path fill="#E82866" d="M883.262,330.811c0,0,18.823-10.876,34.766,0.615C918.027,331.426,903.07,345.502,883.262,330.811z"/>
			<path fill="#E82866" d="M900.324,315.153c0,0,14.66,3.259,17.404,16.554C917.729,331.707,903.54,331.882,900.324,315.153z"/>
			<path fill="#E82866" d="M898.415,352.819c0,0,7.054-13.258,20.598-12.354C919.013,340.464,915.395,354.185,898.415,352.819z"/>
		</g>
		<g>
			<path fill="#E82866" d="M847.22,195.624c0,0,18.932,10.686,17.134,30.256C864.354,225.879,844.63,220.148,847.22,195.624z"/>
			<path fill="#E82866" d="M869.375,202.364c0,0,4.642,14.283-5.415,23.401C863.96,225.765,856.601,213.633,869.375,202.364z"/>
			<path fill="#E82866" d="M835.963,219.856c0,0,15.003-0.661,21.106,11.464C857.069,231.321,843.413,235.176,835.963,219.856z"/>
		</g>
		<g>
			<path fill="#E82866" d="M796.289,174.998c0,0,18.932,10.686,17.134,30.256C813.423,205.254,793.699,199.523,796.289,174.998z"/>
			<path fill="#E82866" d="M818.444,181.738c0,0,4.642,14.283-5.415,23.401C813.029,205.139,805.67,193.008,818.444,181.738z"/>
			<path fill="#E82866" d="M785.032,199.231c0,0,15.003-0.661,21.106,11.464C806.139,210.695,792.482,214.55,785.032,199.231z"/>
		</g>
		<g>
			<path fill="#E82866" d="M809.798,207.877c0,0,21.162,4.979,24.896,24.273C834.694,232.151,814.154,232.151,809.798,207.877z"/>
			<path fill="#E82866" d="M832.36,197.433c0,0,12.221,17.98,1.923,34.718C834.283,232.151,819.153,218.259,832.36,197.433z"/>
		</g>
		<g>
			<path fill="#E82866" d="M792.646,245.252c0,0,14.896-15.835,33.472-9.42C826.118,235.832,815.846,253.618,792.646,245.252z"/>
			<path fill="#E82866" d="M804.479,225.344c0,0,14.977-1.099,21.433,10.843C825.912,236.188,812.375,240.439,804.479,225.344z"/>
		</g>
		<g>
			<path fill="#E82866" d="M901.342,380.602c0,0,3.409-21.471,22.376-26.615C923.718,353.986,925.229,374.47,901.342,380.602z"/>
			<path fill="#E82866" d="M899.928,357.485c0,0,11.765-9.332,23.82-3.089C923.748,354.396,914.946,365.526,899.928,357.485z"/>
		</g>
		<g>
			<path fill="#E82866" d="M796.29,270.937c0,0,18.932,10.686,17.134,30.256C813.424,301.192,793.7,295.461,796.29,270.937z"/>
			<path fill="#E82866" d="M818.445,277.677c0,0,4.642,14.283-5.415,23.401C813.03,301.078,805.671,288.946,818.445,277.677z"/>
			<path fill="#E82866" d="M785.033,295.169c0,0,15.003-0.661,21.106,11.464C806.14,306.634,792.483,310.489,785.033,295.169z"/>
		</g>
		<g>
			<path fill="#F9B300" d="M1026.328,291.794c15.548-5.29,35.894,5.315,38.306,24.62c2.41,19.305-52.9,44.302-60.006,0.257
				C1004.628,316.671,1001.054,300.396,1026.328,291.794z"/>
			<path fill="#1C1F19" d="M1020.849,279.8l6.213-1.911l3.01,9.782c0,0,9.191,2.008,14.803,1.025c0,0-4.9,10.223-12.514,7.581
				c0,0,2.931,7.359-0.091,12.584c0,0-6.769-5.792-5.787-10.749c0,0-7.546,3.396-12.503,0.087c0,0,9.864-6.336,11.195-8.991
				C1026.505,286.551,1020.849,279.8,1020.849,279.8z"/>
		</g>
		<g>
			<path fill="#F9B300" d="M959.858,148.41c12.347-2.049,26.329,8.446,25.75,23.261c-0.58,14.814-45.269,26.753-45.15-7.246
				C940.458,164.425,939.788,151.744,959.858,148.41z"/>
			<path fill="#1C1F19" d="M957.226,138.712l4.908-0.667l1.051,7.728c0,0,6.661,2.649,11.003,2.605c0,0-4.952,7.08-10.35,4.149
				c0,0,1.292,5.896-1.628,9.451c0,0-4.371-5.194-3.019-8.799c0,0-6.095,1.619-9.412-1.484c0,0,8.202-3.541,9.532-5.373
				C960.642,144.489,957.226,138.712,957.226,138.712z"/>
		</g>
		<line fill="none" stroke="#1C1F19" stroke-miterlimit="10" x1="901.342" y1="380.602" x2="924.129" y2="356.324"/>
		<line fill="none" stroke="#1C1F19" stroke-miterlimit="10" x1="885.435" y1="329.732" x2="917.729" y2="331.707"/>
		<polyline fill="none" stroke="#1C1F19" stroke-miterlimit="10" points="756.667,305.913 790.631,311.849 772.303,286.064 		"/>
		<polyline fill="none" stroke="#1C1F19" stroke-miterlimit="10" points="796.29,270.937 810.921,298.999 818.445,277.677 		"/>
		<line fill="none" stroke="#1C1F19" stroke-miterlimit="10" x1="773.962" y1="345.774" x2="796.088" y2="319.331"/>
		<polyline fill="none" stroke="#1C1F19" stroke-miterlimit="10" points="795.586,242.617 825.912,236.188 804.479,225.344 		"/>
		<line fill="none" stroke="#1C1F19" stroke-miterlimit="10" x1="796.289" y1="174.998" x2="812.933" y2="202.364"/>
		<polyline fill="none" stroke="#1C1F19" stroke-miterlimit="10" points="809.798,207.877 834.283,232.151 832.36,197.433 		"/>
		<line fill="none" stroke="#1C1F19" stroke-miterlimit="10" x1="847.22" y1="195.624" x2="863.96" y2="225.765"/>
		<line fill="none" stroke="#1C1F19" stroke-miterlimit="10" x1="836.051" y1="113.396" x2="860.536" y2="137.669"/>
		<line fill="none" stroke="#1C1F19" stroke-miterlimit="10" x1="827.476" y1="155.993" x2="860.536" y2="150.012"/>
		<line fill="none" stroke="#1C1F19" stroke-miterlimit="10" x1="920.995" y1="113.396" x2="945.48" y2="137.669"/>
		<polyline fill="none" stroke="#1C1F19" stroke-miterlimit="10" points="992.55,71.574 1017.035,95.847 1015.707,71.865 		"/>
		<circle fill="none" stroke="#FCFCFC" stroke-miterlimit="10" cx="1013.712" cy="314.561" r="2.712"/>
		<circle fill="none" stroke="#FCFCFC" stroke-miterlimit="10" cx="1018.212" cy="325.218" r="1.788"/>
		<circle fill="none" stroke="#FCFCFC" stroke-miterlimit="10" cx="1025.463" cy="320.458" r="1.537"/>
		<circle fill="none" stroke="#FCFCFC" stroke-miterlimit="10" cx="1027.445" cy="328.988" r="1.982"/>
		<circle fill="none" stroke="#FCFCFC" stroke-miterlimit="10" cx="951.466" cy="161.365" r="3.135"/>
		<circle fill="none" stroke="#FCFCFC" stroke-miterlimit="10" cx="951.642" cy="169.137" r="1.863"/>
		<circle fill="none" stroke="#FCFCFC" stroke-miterlimit="10" cx="959.742" cy="179.242" r="2.242"/>
		<circle fill="none" stroke="#FCFCFC" stroke-miterlimit="10" cx="960.863" cy="170.258" r="1.121"/>
		<path fill="none" stroke="#FCFCFC" stroke-miterlimit="10" d="M935.974,270.426c0,0,10.688,1.852,12.357,7.463
			s-3.667,9.829-8.081,9.361s-7.671-9.785,0.205-9.573c0,0,3.525-0.513,1.742,3.389"/>
		<path fill="none" stroke="#FCFCFC" stroke-miterlimit="10" d="M1145.396,154.779c0,0,16.319,2.827,18.867,11.394
			s-5.599,15.007-12.338,14.293c-6.74-0.714-11.712-14.94,0.312-14.616c0,0,5.383-0.783,2.66,5.174"/>
		<path fill="none" stroke="#FCFCFC" stroke-miterlimit="10" d="M1183.306,207.331c0,0,14.845-2.572,17.163-10.364
			c2.315-7.793-5.092-13.65-11.223-13c-6.13,0.649-10.653,13.588,0.283,13.294c0,0,4.897,0.711,2.42-4.706"/>
		<path fill="none" stroke="#1C1F19" stroke-miterlimit="10" d="M844.006,245.5c0,0,20.388-9.261,26.438-14.471
			s7.534,1.122,7.534,1.122S857.779,244.503,844.006,245.5z"/>
		<path fill="none" stroke="#1C1F19" stroke-miterlimit="10" d="M992.55,133.748c0,0,18.298,3.035,23.874,9.144
			S1040,162.23,1053,161.365s86.5-3.135,86.5-3.135"/>
		<path fill="none" stroke="#1C1F19" stroke-miterlimit="10" d="M1053.5,240.896c0,0-62.5,18.604-76.5,21.104s-16.441-5-27.221-8.5
			s-27.139,0.5-27.139,0.5"/>
		<path fill="none" stroke="#1C1F19" stroke-miterlimit="10" d="M1151,196.5c0,0-21,20.759-24.5,29.379s-15.172,21.61-15.172,21.61
			l-16.816,8.51l16.816-4.302v18.728l5.958-20.926c0,0,10.714-17.812,15.714-24.156s21-24.895,27-26.12s12.012-3.601,12.012-3.601"
			/>
	</g>
	<text transform="matrix(1 0 0 1 965.9834 879.999)" font-family="'Rubik-Light'" font-size="18.5193" letter-spacing="12">CHUSEOK</text>
</g>
</svg>
